<svg version="1.1" xmlns="http://www.w3.org/2000/svg" xmlns:xlink="http://www.w3.org/1999/xlink" width="1560" height="804"><defs/><g><path fill="none" stroke="#02063B" paint-order="fill stroke markers" d=" M 20 415.65654545929556 L 21 416.3382837041942 L 22 417.019862634977 L 23 417.7012746785517 L 24 418.3825122636804 L 25 419.0635678210636 L 26 419.74443378342437 L 27 420.42510258559224 L 28 421.1055666645877 L 29 421.78581845970564 L 30 422.46585041259976 L 31 423.14565496736657 L 32 423.8252245706291 L 33 424.50455167162085 L 34 425.18362872227004 L 35 425.86244817728306 L 36 426.54100249422845 L 37 427.2192841336209 L 38 427.8972855590046 L 39 428.57499923703745 L 40 429.2524176375744 L 41 429.9295332337513 L 42 430.60633850206847 L 43 431.2828259224744 L 44 431.9589879784491 L 45 432.6348171570878 L 46 433.31030594918445 L 47 433.9854468493148 L 48 434.6602323559204 L 49 435.3346549713914 L 50 436.00870720215005 L 51 436.68238155873416 L 52 437.35567055588 L 53 438.0285667126056 L 54 438.70106255229393 L 55 439.373150602776 L 56 440.04482339641356 L 57 440.7160734701826 L 58 441.3868933657559 L 59 442.05727562958583 L 60 442.72721281298755 L 61 443.3966974722215 L 62 444.06572216857603 L 63 444.7342794684504 L 64 445.40236194343703 L 65 446.0699621704041 L 66 446.7370727315782 L 67 447.4036862146267 L 68 448.0697952127399 L 69 448.73539232471364 L 70 449.4004701550312 L 71 450.06502131394586 L 72 450.7290384175626 L 73 451.39251408792046 L 74 452.0554409530744 L 75 452.7178116471772 L 76 453.3796188105613 L 77 454.0408550898204 L 78 454.7015131378918 L 79 455.36158561413714 L 80 456.0210651844247 L 81 456.67994452121036 L 82 457.3382163036195 L 83 457.9958732175279 L 84 458.65290795564334 L 85 459.3093132175865 L 86 459.9650817099724 L 87 460.6202061464913 L 88 461.27467924798935 L 89 461.9284937425501 L 90 462.5816423655746 L 91 463.2341178598628 L 92 463.88591297569366 L 93 464.53702047090593 L 94 465.18743311097853 L 95 465.83714366911113 L 96 466.4861449263041 L 97 467.1344296714392 L 98 467.7819907013591 L 99 468.42882082094803 L 100 469.0749128432112 L 101 469.7202595893551 L 102 470.36485388886695 L 103 471.0086885795945 L 104 471.65175650782555 L 105 472.2940505283675 L 106 472.9355635046268 L 107 473.5762883086881 L 108 474.21621782139346 L 109 474.85534493242153 L 110 475.49366254036653 L 111 476.1311635528172 L 112 476.7678408864355 L 113 477.4036874670354 L 114 478.03869622966147 L 115 478.67286011866724 L 116 479.3061720877938 L 117 479.9386251002481 L 118 480.5702121287809 L 119 481.200926155765 L 120 481.83076017327335 L 121 482.45970718315664 L 122 483.0877601971212 L 123 483.7149122368067 L 124 484.3411563338636 L 125 484.9664855300306 L 126 485.5908928772119 L 127 486.2143714375546 L 128 486.83691428352546 L 129 487.4585144979882 L 130 488.0791651742802 L 131 488.69885941628917 L 132 489.31759033852995 L 133 489.9353510662208 L 134 490.5521347353601 L 135 491.1679344928022 L 136 491.782743496334 L 137 492.39655491475065 L 138 493.00936192793154 L 139 493.62115772691624 L 140 494.2319355139799 L 141 494.84168850270896 L 142 495.4504099180765 L 143 496.05809299651753 L 144 496.664730986004 L 145 497.2703171461201 L 146 497.8748447481369 L 147 498.4783070750874 L 148 499.0806974218407 L 149 499.682009095177 L 150 500.2822354138616 L 151 500.88136970871943 L 152 501.47940532270894 L 153 502.076335610996 L 154 502.67215394102817 L 155 503.2668536926078 L 156 503.860428257966 L 157 504.452871041836 L 158 505.0441754615262 L 159 505.6343349469936 L 160 506.2233429409167 L 161 506.8111928987683 L 162 507.3978782888882 L 163 507.98339259255584 L 164 508.5677293040629 L 165 509.15088193078515 L 166 509.73284399325496 L 167 510.3136090252332 L 168 510.8931705737811 L 169 511.4715221993318 L 170 512.0486574757621 L 171 512.6245699904637 L 172 513.1992533444146 L 173 513.7727011522502 L 174 514.3449070423341 L 175 514.9158646568288 L 176 515.4855676517668 L 177 516.0540096971207 L 178 516.6211844768735 L 179 517.1870856890891 L 180 517.7517070459822 L 181 518.3150422739878 L 182 518.8770851138315 L 183 519.4378293205987 L 184 519.9972686638038 L 185 520.5553969274598 L 186 521.1122079101475 L 187 521.6676954250839 L 188 522.2218533001911 L 189 522.7746753781653 L 190 523.3261555165443 L 191 523.876287587777 L 192 524.4250654792904 L 193 524.9724830935579 L 194 525.5185343481673 L 195 526.0632131758881 L 196 526.6065135247388 L 197 527.1484293580546 L 198 527.688954654554 L 199 528.2280834084057 L 200 528.7658096292961 L 201 529.3021273424947 L 202 529.8370305889215 L 203 530.3705134252125 L 204 530.9025699237861 L 205 531.4331941729089 L 206 531.9623802767613 L 207 532.4901223555034 L 208 533.0164145453396 L 209 533.5412509985842 L 210 534.0646258837266 L 211 534.5865333854957 L 212 535.1069677049246 L 213 535.6259230594151 L 214 536.1433936828017 L 215 536.6593738254165 L 216 537.173857754152 L 217 537.6868397525253 L 218 538.1983141207418 L 219 538.7082751757581 L 220 539.2167172513456 L 221 539.7236346981531 L 222 540.2290218837697 L 223 540.7328731927876 L 224 541.2351830268639 L 225 541.7359458047835 L 226 542.2351559625206 L 227 542.732807953301 L 228 543.228896247663 L 229 543.7234153335197 L 230 544.2163597162197 L 231 544.7077239186082 L 232 545.1975024810879 L 233 545.6856899616799 L 234 546.1722809360841 L 235 546.6572699977388 L 236 547.1406517578819 L 237 547.6224208456097 L 238 548.1025719079373 L 239 548.581099609858 L 240 549.0579986344021 L 241 549.5332636826967 L 242 550.0068894740236 L 243 550.4788707458792 L 244 550.9492022540318 L 245 551.4178787725806 L 246 551.8848950940137 L 247 552.3502460292655 L 248 552.8139264077748 L 249 553.2759310775423 L 250 553.7362549051876 L 251 554.1948927760061 L 252 554.6518395940261 L 253 555.1070902820657 L 254 555.5606397817884 L 255 556.01248305376 L 256 556.4626150775044 L 257 556.9110308515593 L 258 557.3577253935318 L 259 557.8026937401538 L 260 558.2459309473371 L 261 558.6874320902285 L 262 559.1271922632643 L 263 559.5652065802248 L 264 560.0014701742887 L 265 560.4359781980874 L 266 560.8687258237583 L 267 561.2997082429989 L 268 561.7289206671202 L 269 562.1563583270995 L 270 562.5820164736341 L 271 563.0058903771933 L 272 563.4279753280713 L 273 563.8482666364398 L 274 564.2667596323997 L 275 564.6834496660331 L 276 565.098332107455 L 277 565.5114023468648 L 278 565.9226557945974 L 279 566.3320878811743 L 280 566.7396940573543 L 281 567.145469794184 L 282 567.5494105830485 L 283 567.9515119357206 L 284 568.351769384412 L 285 568.7501784818216 L 286 569.1467348011859 L 287 569.5414339363275 L 288 569.9342715017046 L 289 570.3252431324595 L 290 570.7143444844668 L 291 571.1015712343823 L 292 571.4869190796904 L 293 571.8703837387525 L 294 572.2519609508539 L 295 572.631646476252 L 296 573.0094360962224 L 297 573.3853256131067 L 298 573.7593108503585 L 299 574.1313876525902 L 300 574.5015518856188 L 301 574.8697994365123 L 302 575.236126213635 L 303 575.6005281466931 L 304 575.96300118678 L 305 576.3235413064214 L 306 576.6821444996194 L 307 577.0388067818978 L 308 577.3935241903463 L 309 577.7462927836636 L 310 578.0971086422028 L 311 578.445967868013 L 312 578.7928665848843 L 313 579.1378009383905 L 314 579.4807670959306 L 315 579.8217612467735 L 316 580.1607796020985 L 317 580.4978183950388 L 318 580.8328738807222 L 319 581.1659423363134 L 320 581.4970200610552 L 321 581.8261033763097 L 322 582.153188625599 L 323 582.4782721746459 L 324 582.8013504114142 L 325 583.1224197461493 L 326 583.4414766114171 L 327 583.7585174621449 L 328 584.0735387756597 L 329 584.3865370517279 L 330 584.6975088125943 L 331 585.00645060302 L 332 585.3133589903218 L 333 585.6182305644097 L 334 585.9210619378249 L 335 586.2218497457774 L 336 586.5205906461836 L 337 586.817281319703 L 338 587.111918469776 L 339 587.4044988226593 L 340 587.6950191274632 L 341 587.9834761561871 L 342 588.2698667037561 L 343 588.5541875880558 L 344 588.8364356499683 L 345 589.1166077534068 L 346 589.394700785351 L 347 589.670711655881 L 348 589.9446372982122 L 349 590.2164746687292 L 350 590.4862207470198 L 351 590.7538725359078 L 352 591.0194270614874 L 353 591.2828813731553 L 354 591.5442325436442 L 355 591.8034776690549 L 356 592.0606138688886 L 357 592.3156382860791 L 358 592.5685480870245 L 359 592.8193404616184 L 360 593.0680126232814 L 361 593.314561808992 L 362 593.5589852793177 L 363 593.8012803184441 L 364 594.041444234207 L 365 594.2794743581209 L 366 594.5153680454089 L 367 594.7491226750326 L 368 594.9807356497206 L 369 595.210204395998 L 370 595.4375263642142 L 371 595.6626990285722 L 372 595.8857198871555 L 373 596.106586461957 L 374 596.3252962989059 L 375 596.5418469678951 L 376 596.7562360628085 L 377 596.9684612015469 L 378 597.1785200260557 L 379 597.38641020235 L 380 597.592129420541 L 381 597.795675394862 L 382 597.9970458636927 L 383 598.196238589586 L 384 598.3932513592911 L 385 598.5880819837795 L 386 598.7807282982683 L 387 598.9711881622449 L 388 599.1594594594906 L 389 599.345540098104 L 390 599.5294280105245 L 391 599.7111211535548 L 392 599.8906175083841 L 393 600.0679150806104 L 394 600.2430119002624 L 395 600.4159060218218 L 396 600.5865955242443 L 397 600.755078510982 L 398 600.9213531100032 L 399 601.0854174738141 L 400 601.2472697794791 L 401 601.4069082286409 L 402 601.5643310475405 L 403 601.7195364870371 L 404 601.8725228226275 L 405 602.0232883544651 L 406 602.1718314073788 L 407 602.3181503308919 L 408 602.4622434992398 L 409 602.604109311389 L 410 602.7437461910542 L 411 602.8811525867159 L 412 603.0163269716377 L 413 603.1492678438835 L 414 603.2799737263338 L 415 603.4084431667022 L 416 603.5346747375521 L 417 603.6586670363117 L 418 603.78041868529 L 419 603.8999283316921 L 420 604.0171946476344 L 421 604.1322163301588 L 422 604.2449921012482 L 423 604.3555207078393 L 424 604.4638009218378 L 425 604.5698315401312 L 426 604.6736113846025 L 427 604.7751393021438 L 428 604.8744141646677 L 429 604.9714348691215 L 430 605.0662003374982 L 431 605.1587095168493 L 432 605.2489613792957 L 433 605.3369549220401 L 434 605.4226891673775 L 435 605.5061631627057 L 436 605.5873759805369 L 437 605.6663267185072 L 438 605.7430144993872 L 439 605.817438471091 L 440 605.8895978066865 L 441 605.9594917044041 L 442 606.0271193876455 L 443 606.0924801049927 L 444 606.1555731302162 L 445 606.2163977622831 L 446 606.2749533253648 L 447 606.3312391688444 L 448 606.3852546673243 L 449 606.4369992206329 L 450 606.4864722538312 L 451 606.5336732172193 L 452 606.5786015863425 L 453 606.6212568619974 L 454 606.6616385702366 L 455 606.6997462623751 L 456 606.7355795149945 L 457 606.7691379299479 L 458 606.8004211343641 L 459 606.8294287806526 L 460 606.8561605465063 L 461 606.8806161349061 L 462 606.9027952741233 L 463 606.9226977177232 L 464 606.9403232445678 L 465 606.9556716588181 L 466 606.9687427899365 L 467 606.9795364926881 L 468 606.9880526471431 L 469 606.9942911586776 L 470 606.9982519579748 L 471 606.9999350010261 L 472 606.9993402691308 L 473 606.9964677688971 L 474 606.9913175322417 L 475 606.9838896163893 L 476 606.9741841038724 L 477 606.9622011025297 L 478 606.9479407455055 L 479 606.9314031912484 L 480 606.9125886235086 L 481 606.8914972513367 L 482 606.8681293090809 L 483 606.842485056385 L 484 606.8145647781848 L 485 606.7843687847054 L 486 606.7518974114574 L 487 606.7171510192336 L 488 606.6801299941045 L 489 606.6408347474146 L 490 606.5992657157774 L 491 606.5554233610704 L 492 606.5093081704306 L 493 606.4609206562484 L 494 606.4102613561624 L 495 606.3573308330533 L 496 606.3021296750373 L 497 606.2446584954603 L 498 606.18491793289 L 499 606.12290865111 L 500 606.0586313391118 L 501 605.9920867110869 L 502 605.9232755064195 L 503 605.8521984896778 L 504 605.7788564506055 L 505 605.7032502041138 L 506 605.625380590271 L 507 605.5452484742943 L 508 605.4628547465397 L 509 605.3782003224924 L 510 605.291286142756 L 511 605.2021131730429 L 512 605.1106824041628 L 513 605.0169948520124 L 514 604.9210515575633 L 515 604.8228535868512 L 516 604.7224020309638 L 517 604.6196980060283 L 518 604.5147426531994 L 519 604.4075371386468 L 520 604.2980826535418 L 521 604.186380414044 L 522 604.0724316612884 L 523 603.9562376613711 L 524 603.8377997053353 L 525 603.717119109157 L 526 603.5941972137307 L 527 603.4690353848537 L 528 603.3416350132118 L 529 603.2119975143634 L 530 603.0801243287239 L 531 602.9460169215494 L 532 602.8096767829209 L 533 602.6711054277273 L 534 602.5303043956492 L 535 602.3872752511407 L 536 602.2420195834134 L 537 602.0945390064174 L 538 601.9448351588245 L 539 601.7929097040089 L 540 601.63876433003 L 541 601.4824007496125 L 542 601.3238207001276 L 543 601.1630259435747 L 544 601.0000182665601 L 545 600.8347994802789 L 546 600.6673714204935 L 547 600.4977359475141 L 548 600.3258949461773 L 549 600.151850325826 L 550 599.9756040202874 L 551 599.7971579878521 L 552 599.6165142112518 L 553 599.4336746976379 L 554 599.2486414785585 L 555 599.0614166099365 L 556 598.8720021720461 L 557 598.6804002694904 L 558 598.4866130311774 L 559 598.2906426102966 L 560 598.0924911842951 L 561 597.8921609548536 L 562 597.6896541478611 L 563 597.4849730133913 L 564 597.2781198256771 L 565 597.0690968830849 L 566 596.8579065080897 L 567 596.6445510472493 L 568 596.4290328711775 L 569 596.2113543745184 L 570 595.99151797592 L 571 595.7695261180065 L 572 595.5453812673519 L 573 595.3190859144522 L 574 595.0906425736978 L 575 594.8600537833458 L 576 594.6273221054917 L 577 594.3924501260401 L 578 594.1554404546778 L 579 593.9162957248427 L 580 593.6750185936963 L 581 593.4316117420931 L 582 593.1860778745511 L 583 592.9384197192219 L 584 592.6886400278602 L 585 592.4367415757932 L 586 592.1827271618902 L 587 591.926599608531 L 588 591.6683617615745 L 589 591.4080164903276 L 590 591.1455666875127 L 591 590.8810152692361 L 592 590.6143651749553 L 593 590.3456193674463 L 594 590.074780832771 L 595 589.8018525802436 L 596 589.5268376423975 L 597 589.2497390749511 L 598 588.9705599567749 L 599 588.6893033898561 L 600 588.4059724992647 L 601 588.1205704331189 L 602 587.8331003625498 L 603 587.5435654816662 L 604 587.2519690075195 L 605 586.9583141800675 L 606 586.6626042621385 L 607 586.3648425393955 L 608 586.0650323202987 L 609 585.7631769360698 L 610 585.4592797406544 L 611 585.1533441106849 L 612 584.8453734454429 L 613 584.5353711668214 L 614 584.2233407192872 L 615 583.909285569842 L 616 583.593209207984 L 617 583.2751151456699 L 618 582.9550069172747 L 619 582.6328880795531 L 620 582.3087622116002 L 621 581.982632914811 L 622 581.6545038128411 L 623 581.324378551566 L 624 580.9922607990409 L 625 580.6581542454594 L 626 580.3220626031133 L 627 579.9839896063506 L 628 579.6439390115345 L 629 579.3019145970014 L 630 578.9579201630191 L 631 578.6119595317444 L 632 578.2640365471809 L 633 577.9141550751358 L 634 577.5623190031774 L 635 577.2085322405919 L 636 576.8527987183396 L 637 576.4951223890116 L 638 576.1355072267855 L 639 575.7739572273819 L 640 575.4104764080189 L 641 575.0450688073688 L 642 574.6777384855124 L 643 574.3084895238936 L 644 573.9373260252752 L 645 573.564252113692 L 646 573.189271934406 L 647 572.8123896538597 L 648 572.43360945963 L 649 572.0529355603821 L 650 571.6703721858219 L 651 571.2859235866497 L 652 570.8995940345125 L 653 570.5113878219571 L 654 570.1213092623817 L 655 569.7293626899886 L 656 569.3355524597357 L 657 568.9398829472882 L 658 568.5423585489698 L 659 568.1429836817142 L 660 567.7417627830159 L 661 567.3387003108809 L 662 566.9338007437766 L 663 566.5270685805832 L 664 566.1185083405426 L 665 565.7081245632089 L 666 565.2959218083977 L 667 564.8819046561354 L 668 564.4660777066081 L 669 564.048445580111 L 670 563.6290129169969 L 671 563.2077843776243 L 672 562.7847646423061 L 673 562.3599584112571 L 674 561.9333704045423 L 675 561.5050053620239 L 676 561.074868043309 L 677 560.642963227697 L 678 560.2092957141258 L 679 559.7738703211187 L 680 559.3366918867312 L 681 558.897765268497 L 682 558.4570953433739 L 683 558.0146870076901 L 684 557.570545177089 L 685 557.1246747864753 L 686 556.67708078996 L 687 556.227768160805 L 688 555.7767418913683 L 689 555.3240069930481 L 690 554.8695684962277 L 691 554.4134314502189 L 692 553.9556009232065 L 693 553.4960820021915 L 694 553.0348797929352 L 695 552.5719994199017 L 696 552.1074460262015 L 697 551.6412247735343 L 698 551.1733408421312 L 699 550.703799430698 L 700 550.2326057563565 L 701 549.7597650545873 L 702 549.2852825791708 L 703 548.80916360213 L 704 548.3314134136706 L 705 547.8520373221231 L 706 547.3710406538837 L 707 546.8884287533549 L 708 546.4042069828861 L 709 545.9183807227142 L 710 545.4309553709039 L 711 544.9419363432872 L 712 544.451329073404 L 713 543.9591390124413 L 714 543.465371629172 L 715 542.9700324098956 L 716 542.4731268583761 L 717 541.9746604957811 L 718 541.4746388606208 L 719 540.9730675086857 L 720 540.4699520129859 L 721 539.9652979636884 L 722 539.459110968055 L 723 538.9513966503806 L 724 538.4421606519302 L 725 537.9314086308764 L 726 537.4191462622362 L 727 536.9053792378085 L 728 536.3901132661105 L 729 535.8733540723143 L 730 535.3551073981836 L 731 534.8353790020093 L 732 534.314174658546 L 733 533.7915001589478 L 734 533.2673613107037 L 735 532.7417639375733 L 736 532.214713879522 L 737 531.6862169926561 L 738 531.1562791491579 L 739 530.6249062372201 L 740 530.0921041609807 L 741 529.5578788404574 L 742 529.0222362114816 L 743 528.4851822256325 L 744 527.9467228501709 L 745 527.4068640679734 L 746 526.8656118774654 L 747 526.3229722925545 L 748 525.7789513425639 L 749 525.233555072165 L 750 524.6867895413111 L 751 524.1386608251688 L 752 523.5891750140518 L 753 523.0383382133522 L 754 522.4861565434732 L 755 521.932636139761 L 756 521.3777831524368 L 757 520.8216037465279 L 758 520.2641041017998 L 759 519.7052904126874 L 760 519.1451688882257 L 761 518.5837457519816 L 762 518.021027241984 L 763 517.4570196106553 L 764 516.8917291247409 L 765 516.3251620652404 L 766 515.7573247273377 L 767 515.1882234203306 L 768 514.6178644675609 L 769 514.0462542063448 L 770 513.4733989879013 L 771 512.8993051772827 L 772 512.3239791533028 L 773 511.7474273084676 L 774 511.1696560489023 L 775 510.59067179428195 L 776 510.01048097775885 L 777 509.4290900458916 L 778 508.8465054585736 L 779 508.26273368896074 L 780 507.67778122340013 L 781 507.09165456135764 L 782 506.50436021534574 L 783 505.91590471085095 L 784 505.32629458626184 L 785 504.73553639279584 L 786 504.1436366944269 L 787 503.55060206781224 L 788 502.9564391022194 L 789 502.3611543994529 L 790 501.76475457378115 L 791 501.16724625186276 L 792 500.5686360726729 L 793 499.96893068742963 L 794 499.3681367595201 L 795 498.76626096442595 L 796 498.16330998965 L 797 497.5592905346412 L 798 496.9542093107208 L 799 496.34807304100707 L 800 495.74088846034147 L 801 495.1326623152128 L 802 494.5234013636833 L 803 493.9131123753127 L 804 493.3018021310836 L 805 492.6894774233257 L 806 492.07614505564055 L 807 491.4618118428259 L 808 490.8464846108001 L 809 490.23017019652593 L 810 489.6128754479351 L 811 488.99460722385186 L 812 488.3753723939166 L 813 487.7551778385101 L 814 487.13403044867647 L 815 486.5119371260471 L 816 485.8889047827636 L 817 485.2649403414011 L 818 484.6400507348914 L 819 484.014242906446 L 820 483.3875238094787 L 821 482.7599004075287 L 822 482.1313796741827 L 823 481.5019685929982 L 824 480.8716741574249 L 825 480.240503370728 L 826 479.60846324590966 L 827 478.9755608056315 L 828 478.34180308213644 L 829 477.70719711717015 L 830 477.0717499619037 L 831 476.4354686768545 L 832 475.798360331808 L 833 475.16043200573927 L 834 474.5216907867343 L 835 473.88214377191116 L 836 473.2417980673411 L 837 472.60066078796996 L 838 471.9587390575386 L 839 471.3160400085041 L 840 470.67257078196053 L 841 470.02833852755913 L 842 469.3833504034295 L 843 468.7376135760998 L 844 468.09113522041696 L 845 467.44392251946715 L 846 466.795982664496 L 847 466.14732285482853 L 848 465.49795029778926 L 849 464.8478722086222 L 850 464.1970958104105 L 851 463.54562833399643 L 852 462.89347701790064 L 853 462.2406491082422 L 854 461.58715185865793 L 855 460.9329925302216 L 856 460.27817839136344 L 857 459.6227167177895 L 858 458.96661479240026 L 859 458.3098799052106 L 860 457.6525193532679 L 861 456.99454044057165 L 862 456.33595047799184 L 863 455.67675678318807 L 864 455.01696668052773 L 865 454.35658750100527 L 866 453.6956265821603 L 867 453.03409126799625 L 868 452.37198890889874 L 869 451.7093268615539 L 870 451.0461124888664 L 871 450.382353159878 L 872 449.7180562496856 L 873 449.05322913935913 L 874 448.3878792158597 L 875 447.72201387195736 L 876 447.05564050614896 L 877 446.3887665225763 L 878 445.72139933094337 L 879 445.0535463464343 L 880 444.38521498963115 L 881 443.7164126864307 L 882 443.04714686796297 L 883 442.37742497050783 L 884 441.7072544354129 L 885 441.03664270901055 L 886 440.36559724253533 L 887 439.69412549204094 L 888 439.02223491831774 L 889 438.3499329868097 L 890 437.6772271675313 L 891 437.0041249349848 L 892 436.330633768077 L 893 435.65676115003595 L 894 434.98251456832844 L 895 434.30790151457614 L 896 433.6329294844727 L 897 432.9576059777005 L 898 432.2819384978471 L 899 431.6059345523218 L 900 430.92960165227277 L 901 430.252947312503 L 902 429.5759790513871 L 903 428.89870439078777 L 904 428.22113085597186 L 905 427.5432659755273 L 906 426.8651172812791 L 907 426.18669230820586 L 908 425.50799859435574 L 909 424.8290436807633 L 910 424.1498351113646 L 911 423.47038043291485 L 912 422.7906871949034 L 913 422.1107629494703 L 914 421.4306152513225 L 915 420.75025165764964 L 916 420.06967972804006 L 917 419.3889070243972 L 918 418.7079411108552 L 919 418.0267895536949 L 920 417.3454599212601 L 921 416.66395978387294 L 922 415.98229671375015 L 923 415.30047828491877 L 924 414.6185120731322 L 925 413.93640565578573 L 926 413.25416661183266 L 927 412.5718025216996 L 928 411.8893209672028 L 929 411.20672953146374 L 930 410.52403579882457 L 931 409.84124735476416 L 932 409.158371785814 L 933 408.475416679473 L 934 407.7923896241245 L 935 407.10929820895086 L 936 406.4261500238497 L 937 405.7429526593493 L 938 405.0597137065247 L 939 404.3764407569125 L 940 403.6931414024274 L 941 403.00982323527745 L 942 402.3264938478798 L 943 401.64316083277606 L 944 400.95983178254835 L 945 400.2765142897345 L 946 399.5932159467442 L 947 398.90994434577414 L 948 398.22670707872396 L 949 397.5435117371119 L 950 396.86036591199036 L 951 396.17727719386124 L 952 395.49425317259227 L 953 394.81130143733225 L 954 394.12842957642675 L 955 393.445645177334 L 956 392.76295582653995 L 957 392.0803691094751 L 958 391.3978926104292 L 959 390.71553391246744 L 960 390.03330059734606 L 961 389.3512002454284 L 962 388.66924043560005 L 963 387.9874287451852 L 964 387.3057727498624 L 965 386.62428002358007 L 966 385.9429581384726 L 967 385.2618146647763 L 968 384.58085717074476 L 969 383.90009322256543 L 970 383.21953038427523 L 971 382.5391762176764 L 972 381.8590382822527 L 973 381.17912413508543 L 974 380.49944133076906 L 975 379.8199974213278 L 976 379.14079995613145 L 977 378.4618564818115 L 978 377.78317454217745 L 979 377.1047616781326 L 980 376.42662542759075 L 981 375.74877332539216 L 982 375.0712129032199 L 983 374.3939516895161 L 984 373.7169972093985 L 985 373.04035698457636 L 986 372.3640385332676 L 987 371.6880493701147 L 988 371.01239700610137 L 989 370.33708894846916 L 990 369.6621327006341 L 991 368.98753576210294 L 992 368.3133056283903 L 993 367.63944979093526 L 994 366.96597573701786 L 995 366.29289094967635 L 996 365.62020290762365 L 997 364.9479190851643 L 998 364.2760469521117 L 999 363.6045939737048 L 1000 362.9335676105255 L 1001 362.26297531841533 L 1002 361.5928245483927 L 1003 360.92312274657047 L 1004 360.2538773540729 L 1005 359.58509580695306 L 1006 358.91678553611007 L 1007 358.2489539672069 L 1008 357.58160852058717 L 1009 356.9147566111936 L 1010 356.24840564848495 L 1011 355.582563036354 L 1012 354.917236173045 L 1013 354.2524324510721 L 1014 353.5881592571361 L 1015 352.9244239720437 L 1016 352.26123397062446 L 1017 351.5985966216494 L 1018 350.9365192877489 L 1019 350.2750093253311 L 1020 349.6140740844996 L 1021 348.9537209089727 L 1022 348.29395713600104 L 1023 347.63479009628645 L 1024 346.9762271139004 L 1025 346.3182755062026 L 1026 345.6609425837596 L 1027 345.0042356502638 L 1028 344.34816200245217 L 1029 343.69272893002517 L 1030 343.03794371556586 L 1031 342.38381363445853 L 1032 341.7303459548086 L 1033 341.0775479373614 L 1034 340.42542683542143 L 1035 339.773989894772 L 1036 339.12324435359477 L 1037 338.4731974423888 L 1038 337.8238563838911 L 1039 337.17522839299556 L 1040 336.5273206766731 L 1041 335.8801404338918 L 1042 335.23369485553667 L 1043 334.5879911243294 L 1044 333.9430364147495 L 1045 333.2988378929537 L 1046 332.6554027166967 L 1047 332.0127380352517 L 1048 331.3708509893308 L 1049 330.72974871100547 L 1050 330.0894383236279 L 1051 329.4499269417514 L 1052 328.8112216710514 L 1053 328.1733296082465 L 1054 327.53625784101973 L 1055 326.9000134479398 L 1056 326.2646034983822 L 1057 325.63003505245103 L 1058 324.9963151609002 L 1059 324.3634508650555 L 1060 323.7314491967357 L 1061 323.1003171781751 L 1062 322.47006182194525 L 1063 321.840690130877 L 1064 321.2122090979826 L 1065 320.58462570637823 L 1066 319.9579469292061 L 1067 319.3321797295574 L 1068 318.70733106039455 L 1069 318.0834078644741 L 1070 317.46041707426957 L 1071 316.8383656118946 L 1072 316.21726038902545 L 1073 315.597108306825 L 1074 314.9779162558656 L 1075 314.35969111605243 L 1076 313.7424397565476 L 1077 313.1261690356929 L 1078 312.51088580093455 L 1079 311.89659688874667 L 1080 311.2833091245552 L 1081 310.6710293226625 L 1082 310.05976428617106 L 1083 309.44952080690825 L 1084 308.840305665351 L 1085 308.2321256305501 L 1086 307.62498746005537 L 1087 307.0188978998401 L 1088 306.4138636842266 L 1089 305.80989153581095 L 1090 305.2069881653886 L 1091 304.60516027187975 L 1092 304.0044145422547 L 1093 303.40475765145993 L 1094 302.80619626234363 L 1095 302.2087370255816 L 1096 301.61238657960376 L 1097 301.01715155052 L 1098 300.4230385520468 L 1099 299.8300541854335 L 1100 299.2382050393893 L 1101 298.64749769000963 L 1102 298.0579387007034 L 1103 297.4695346221201 L 1104 296.8822919920766 L 1105 296.2962173354852 L 1106 295.7113171642803 L 1107 295.1275979773467 L 1108 294.54506626044713 L 1109 293.96372848615033 L 1110 293.3835911137588 L 1111 292.80466058923764 L 1112 292.22694334514193 L 1113 291.6504458005464 L 1114 291.07517436097334 L 1115 290.5011354183217 L 1116 289.92833535079615 L 1117 289.35678052283595 L 1118 288.7864772850443 L 1119 288.2174319741181 L 1120 287.64965091277713 L 1121 287.08314040969407 L 1122 286.51790675942414 L 1123 285.95395624233555 L 1124 285.39129512453917 L 1125 284.82992965781955 L 1126 284.2698660795649 L 1127 283.7111106126982 L 1128 283.1536694656077 L 1129 282.59754883207825 L 1130 282.0427548912222 L 1131 281.48929380741106 L 1132 280.9371717302066 L 1133 280.386394794293 L 1134 279.8369691194084 L 1135 279.2889008102767 L 1136 278.7421959565402 L 1137 278.1968606326916 L 1138 277.65290089800675 L 1139 277.1103227964771 L 1140 276.5691323567426 L 1141 276.02933559202484 L 1142 275.49093850006 L 1143 274.9539470630325 L 1144 274.4183672475084 L 1145 273.884205004369 L 1146 273.35146626874484 L 1147 272.8201569599497 L 1148 272.29028298141486 L 1149 271.7618502206235 L 1150 271.23486454904537 L 1151 270.7093318220715 L 1152 270.1852578789487 L 1153 269.6626485427156 L 1154 269.1415096201373 L 1155 268.6218469016407 L 1156 268.10366616125077 L 1157 267.5869731565261 L 1158 267.0717736284945 L 1159 266.55807330158996 L 1160 266.0458778835887 L 1161 265.53519306554557 L 1162 265.0260245217311 L 1163 264.5183779095683 L 1164 264.01225886956985 L 1165 263.50767302527544 L 1166 263.00462598318927 L 1167 262.50312333271773 L 1168 262.0031706461073 L 1169 261.50477347838284 L 1170 261.00793736728536 L 1171 260.512667833211 L 1172 260.0189703791496 L 1173 259.52685049062325 L 1174 259.0363136356257 L 1175 258.54736526456134 L 1176 258.06001081018485 L 1177 257.57425568754076 L 1178 257.0901052939031 L 1179 256.6075650087158 L 1180 256.1266401935327 L 1181 255.64733619195775 L 1182 255.16965832958604 L 1183 254.69361191394455 L 1184 254.21920223443294 L 1185 253.74643456226502 L 1186 253.2753141504101 L 1187 252.8058462335345 L 1188 252.3380360279436 L 1189 251.87188873152374 L 1190 251.40740952368458 L 1191 250.9446035653014 L 1192 250.48347599865798 L 1193 250.02403194738898 L 1194 249.5662765164237 L 1195 249.11021479192888 L 1196 248.65585184125234 L 1197 248.2031927128666 L 1198 247.75224243631297 L 1199 247.30300602214527 L 1200 246.85548846187473 L 1201 246.40969472791403 L 1202 245.9656297735222 L 1203 245.52329853274995 L 1204 245.08270592038403 L 1205 244.64385683189366 L 1206 244.20675614337512 L 1207 243.77140871149814 L 1208 243.33781937345222 L 1209 242.90599294689187 L 1210 242.4759342298844 L 1211 242.04764800085525 L 1212 241.62113901853618 L 1213 241.19641202191136 L 1214 240.77347173016517 L 1215 240.35232284263003 L 1216 239.9329700387335 L 1217 239.51541797794707 L 1218 239.09967129973364 L 1219 238.68573462349644 L 1220 238.27361254852778 L 1221 237.86330965395737 L 1222 237.45483049870228 L 1223 237.04817962141533 L 1224 236.64336154043568 L 1225 236.24038075373772 L 1226 235.8392417388815 L 1227 235.43994895296322 L 1228 235.04250683256515 L 1229 234.6469197937069 L 1230 234.2531922317959 L 1231 233.86132852157863 L 1232 233.47133301709252 L 1233 233.0832100516167 L 1234 232.69696393762484 L 1235 232.31259896673632 L 1236 231.93011940966898 L 1237 231.54952951619194 L 1238 231.17083351507767 L 1239 230.79403561405584 L 1240 230.41913999976572 L 1241 230.04615083771043 L 1242 229.67507227221012 L 1243 229.305908426356 L 1244 228.93866340196504 L 1245 228.57334127953345 L 1246 228.20994611819245 L 1247 227.84848195566215 L 1248 227.48895280820724 L 1249 227.1313626705925 L 1250 226.77571551603782 L 1251 226.42201529617478 L 1252 226.07026594100208 L 1253 225.7204713588422 L 1254 225.3726354362982 L 1255 225.02676203820988 L 1256 224.6828550076116 L 1257 224.34091816568892 L 1258 224.00095531173673 L 1259 223.66297022311645 L 1260 223.32696665521442 L 1261 222.99294834140034 L 1262 222.6609189929852 L 1263 222.33088229918073 L 1264 222.0028419270578 L 1265 221.676801521506 L 1266 221.35276470519332 L 1267 221.0307350785253 L 1268 220.7107162196058 L 1269 220.39271168419646 L 1270 220.07672500567784 L 1271 219.76275969500978 L 1272 219.45081924069237 L 1273 219.14090710872762 L 1274 218.8330267425803 L 1275 218.52718156314037 L 1276 218.22337496868442 L 1277 217.921610334838 L 1278 217.62189101453856 L 1279 217.3242203379976 L 1280 217.02860161266406 L 1281 216.73503812318742 L 1282 216.44353313138106 L 1283 216.15408987618656 L 1284 215.86671157363688 L 1285 215.58140141682154 L 1286 215.29816257585026 L 1287 215.01699819781854 L 1288 214.73791140677204 L 1289 214.46090530367212 L 1290 214.18598296636173 L 1291 213.91314744953053 L 1292 213.64240178468157 L 1293 213.37374898009713 L 1294 213.10719202080563 L 1295 212.8427338685484 L 1296 212.58037746174648 L 1297 212.32012571546852 L 1298 212.06198152139774 L 1299 211.80594774780053 L 1300 211.5520272394938 L 1301 211.3002228178139 L 1302 211.05053728058527 L 1303 210.80297340208898 L 1304 210.55753393303232 L 1305 210.31422160051795 L 1306 210.07303910801366 L 1307 209.83398913532258 L 1308 209.5970743385529 L 1309 209.36229735008894 L 1310 209.12966077856146 L 1311 208.8991672088188 L 1312 208.67081920189833 L 1313 208.44461929499772 L 1314 208.22057000144702 L 1315 207.99867381068037 L 1316 207.77893318820892 L 1317 207.56135057559274 L 1318 207.34592839041417 L 1319 207.13266902625094 L 1320 206.92157485264923 L 1321 206.71264821509774 L 1322 206.50589143500142 L 1323 206.30130680965564 L 1324 206.09889661222087 L 1325 205.89866309169716 L 1326 205.70060847289943 L 1327 205.50473495643243 L 1328 205.31104471866652 L 1329 205.11953991171362 L 1330 204.93022266340276 L 1331 204.74309507725712 L 1332 204.55815923247008 L 1333 204.37541718388255 L 1334 204.1948709619598 L 1335 204.01652257276905 L 1336 203.84037399795733 L 1337 203.66642719472915 L 1338 203.49468409582502 L 1339 203.32514660949985 L 1340 203.15781661950166 L 1341 202.9926959850509 L 1342 202.82978654081955 L 1343 202.66909009691094 L 1344 202.51060843883937 L 1345 202.3543433275106 L 1346 202.200296499202 L 1347 202.04846966554337 L 1348 201.89886451349807 L 1349 201.7514827053439 L 1350 201.60632587865513 L 1351 201.46339564628377 L 1352 201.3226935963421 L 1353 201.1842212921848 L 1354 201.04798027239156 L 1355 200.91397205075015 L 1356 200.78219811623936 L 1357 200.65265993301267 L 1358 200.52535894038195 L 1359 200.40029655280128 L 1360 200.27747415985158 L 1361 200.15689312622473 L 1362 200.0385547917088 L 1363 199.92246047117297 L 1364 199.8086114545529 L 1365 199.6970090068365 L 1366 199.5876543680498 L 1367 199.4805487532433 L 1368 199.37569335247824 L 1369 199.27308933081352 L 1370 199.17273782829278 L 1371 199.0746399599317 L 1372 198.9787968157056 L 1373 198.88520946053725 L 1374 198.79387893428526 L 1375 198.70480625173232 L 1376 198.61799240257392 L 1377 198.53343835140754 L 1378 198.45114503772177 L 1379 198.3711133758859 L 1380 198.2933442551398 L 1381 198.21783853958397 L 1382 198.1445970681701 L 1383 198.0736206546915 L 1384 198.00491008777433 L 1385 197.93846613086856 L 1386 197.8742895222397 L 1387 197.81238097496055 L 1388 197.7527411769032 L 1389 197.69537079073146 L 1390 197.6402704538935 L 1391 197.58744077861468 L 1392 197.53688235189088 L 1393 197.48859573548185 L 1394 197.44258146590508 L 1395 197.3988400544297 L 1396 197.35737198707108 L 1397 197.31817772458493 L 1398 197.28125770246274 L 1399 197.2466123309266 L 1400 197.2142419949247 L 1401 197.18414705412712 L 1402 197.1563278429218 L 1403 197.13078467041075 L 1404 197.10751782040677 L 1405 197.08652755143018 L 1406 197.06781409670597 L 1407 197.05137766416124 L 1408 197.0372184364228 L 1409 197.02533657081528 L 1410 197.01573219935932 L 1411 197.00840542877003 L 1412 197.00335634045587 L 1413 197.0005849905178 L 1414 197.0000914097486 L 1415 197.00187560363244 L 1416 197.005937552345 L 1417 197.0122772107535 L 1418 197.02089450841746 L 1419 197.0317893495891 L 1420 197.0449616132148 L 1421 197.06041115293624 L 1422 197.07813779709198 L 1423 197.0981413487195 L 1424 197.12042158555735 L 1425 197.1449782600475 L 1426 197.17181109933836 L 1427 197.20091980528747 L 1428 197.2323040544651 L 1429 197.26596349815767 L 1430 197.30189776237174 L 1431 197.34010644783805 L 1432 197.38058913001606 L 1433 197.42334535909856 L 1434 197.46837466001688 L 1435 197.5156765324458 L 1436 197.56525045080954 L 1437 197.61709586428725 L 1438 197.67121219681928 L 1439 197.72759884711368 L 1440 197.78625518865266 L 1441 197.84718056969967 L 1442 197.9103743133067 L 1443 197.97583571732164 L 1444 198.0435640543963 L 1445 198.11355857199425 L 1446 198.18581849239936 L 1447 198.26034301272435 L 1448 198.3371313049198 L 1449 198.41618251578325 L 1450 198.49749576696868 L 1451 198.58107015499638 L 1452 198.6669047512629 L 1453 198.75499860205144 L 1454 198.84535072854226 L 1455 198.93796012682378 L 1456 199.03282576790372 L 1457 199.12994659772028 L 1458 199.2293215371542 L 1459 199.33094948204047 L 1460 199.43482930318072 L 1461 199.54095984635586 L 1462 199.64933993233868 L 1463 199.7599683569071 L 1464 199.87284389085758 L 1465 199.9879652800187 L 1466 200.105331245265 L 1467 200.22494048253148 L 1468 200.34679166282788 L 1469 200.47088343225334 L 1470 200.59721441201185 L 1471 200.725783198427 L 1472 200.85658836295815 L 1473 200.98962845221587 L 1474 201.12490198797835 L 1475 201.26240746720768 L 1476 201.4021433620666 L 1477 201.54410811993552 L 1478 201.68830016342972 L 1479 201.8347178904168 L 1480 201.98335967403472 L 1481 202.13422386270952 L 1482 202.28730878017413 L 1483 202.4426127254865 L 1484 202.60013397304883 L 1485 202.75987077262673 L 1486 202.92182134936846 L 1487 203.08598390382485 L 1488 203.2523566119692 L 1489 203.42093762521753 L 1490 203.59172507044934 L 1491 203.76471705002797 L 1492 203.93991164182216 L 1493 204.1173068992271 L 1494 204.29690085118625 L 1495 204.47869150221302 L 1496 204.66267683241324 L 1497 204.84885479750736 L 1498 205.03722332885312 L 1499 205.22778033346896 L 1500 205.4205236940566 L 1501 205.61545126902524 L 1502 205.812560892515 L 1503 206.0118503744208 L 1504 206.21331750041728 L 1505 206.41696003198277 L 1506 206.62277570642462 L 1507 206.83076223690418 L 1508 207.04091731246203 L 1509 207.25323859804402 L 1510 207.4677237345269 L 1511 207.6843703387447 L 1512 207.90317600351517 L 1513 208.12413829766646 L 1514 208.34725476606437 L 1515 208.57252292963915 L 1516 208.79994028541367 L 1517 209.02950430653064 L 1518 209.26121244228113 L 1519 209.49506211813275 L 1520 209.73105073575803 L 1521 209.96917567306383 L 1522 210.20943428421975 L 1523 210.45182389968835 L 1524 210.69634182625398 L 1525 210.94298534705342 L 1526 211.19175172160567 L 1527 211.44263818584236 L 1528 211.6956419521388 L 1529 211.95076020934448 L 1530 212.20799012281483 L 1531 212.46732883444244 L 1532 212.72877346268854 L 1533 212.99232110261568 L 1534 213.25796882591928 L 1535 213.52571368096082 L 1536 213.79555269280027 L 1537 214.067482863229 L 1538 214.3415011708037 L 1539 214.61760457087908" stroke-linecap="round" stroke-linejoin="round" stroke-miterlimit="10" stroke-width="9"/></g></svg>